<mxfile host="app.diagrams.net" modified="2022-09-26T10:30:48.814Z" agent="5.0 (X11)" etag="AYX79l6bDHwE9ScydCpu" version="20.3.6" type="github">
  <diagram id="6I0OCvxSQrVGMHxT2VVA" name="Page-1">
    <mxGraphModel dx="1550" dy="830" grid="1" gridSize="10" guides="1" tooltips="1" connect="1" arrows="1" fold="1" page="1" pageScale="1" pageWidth="827" pageHeight="1169" background="none" math="0" shadow="0">
      <root>
        <mxCell id="0" />
        <mxCell id="1" parent="0" />
        <mxCell id="nqxMB9Gxj_3vNnfW1NG4-40" value="&lt;h2&gt;&lt;br&gt;&lt;/h2&gt;" style="rounded=0;whiteSpace=wrap;html=1;glass=0;sketch=1;fontSize=12;verticalAlign=bottom;shadow=1;align=right;spacingBottom=-14;spacingRight=7;" vertex="1" parent="1">
          <mxGeometry x="40" y="400" width="680" height="560" as="geometry" />
        </mxCell>
        <mxCell id="nqxMB9Gxj_3vNnfW1NG4-1" value="&lt;b&gt;TTCN-3 syntax and semantics&lt;/b&gt;" style="rounded=0;whiteSpace=wrap;html=1;verticalAlign=middle;fillColor=#ffff88;sketch=1;strokeColor=#36393d;" vertex="1" parent="1">
          <mxGeometry x="575" y="620" width="120" height="160" as="geometry" />
        </mxCell>
        <mxCell id="nqxMB9Gxj_3vNnfW1NG4-60" style="edgeStyle=orthogonalEdgeStyle;rounded=0;orthogonalLoop=1;jettySize=auto;html=1;exitX=0.197;exitY=0.033;exitDx=0;exitDy=0;entryX=0.5;entryY=1;entryDx=0;entryDy=0;fontSize=11;exitPerimeter=0;sketch=1;" edge="1" parent="1" source="nqxMB9Gxj_3vNnfW1NG4-57" target="nqxMB9Gxj_3vNnfW1NG4-2">
          <mxGeometry relative="1" as="geometry" />
        </mxCell>
        <mxCell id="nqxMB9Gxj_3vNnfW1NG4-87" style="edgeStyle=orthogonalEdgeStyle;rounded=0;sketch=1;hachureGap=4;jiggle=2;orthogonalLoop=1;jettySize=auto;html=1;exitX=0.5;exitY=0;exitDx=0;exitDy=0;entryX=0.5;entryY=0;entryDx=0;entryDy=0;shadow=1;labelBackgroundColor=default;fontFamily=Architects Daughter;fontSource=https%3A%2F%2Ffonts.googleapis.com%2Fcss%3Ffamily%3DArchitects%2BDaughter;fontSize=16;fontColor=#333333;startArrow=classic;startFill=1;endArrow=classic;endFill=1;" edge="1" parent="1" source="nqxMB9Gxj_3vNnfW1NG4-2" target="nqxMB9Gxj_3vNnfW1NG4-1">
          <mxGeometry relative="1" as="geometry" />
        </mxCell>
        <mxCell id="nqxMB9Gxj_3vNnfW1NG4-2" value="&lt;b style=&quot;font-size: 11px;&quot;&gt;Project Management and Configuration&lt;/b&gt;" style="rounded=0;whiteSpace=wrap;html=1;glass=0;sketch=1;fontSize=11;fillColor=#d5e8d4;strokeColor=#82b366;" vertex="1" parent="1">
          <mxGeometry x="65" y="620" width="120" height="60" as="geometry" />
        </mxCell>
        <mxCell id="nqxMB9Gxj_3vNnfW1NG4-3" value="Runtime" style="rounded=0;whiteSpace=wrap;html=1;fillColor=#dae8fc;strokeColor=#6c8ebf;sketch=1;" vertex="1" parent="1">
          <mxGeometry x="405" y="800" width="120" height="60" as="geometry" />
        </mxCell>
        <mxCell id="nqxMB9Gxj_3vNnfW1NG4-4" value="Builtins/Plugins" style="rounded=0;whiteSpace=wrap;html=1;fillColor=#dae8fc;strokeColor=#6c8ebf;sketch=1;" vertex="1" parent="1">
          <mxGeometry x="405" y="880" width="120" height="60" as="geometry" />
        </mxCell>
        <mxCell id="nqxMB9Gxj_3vNnfW1NG4-29" style="edgeStyle=orthogonalEdgeStyle;rounded=0;orthogonalLoop=1;jettySize=auto;html=1;exitX=0.008;exitY=0.813;exitDx=0;exitDy=0;exitPerimeter=0;sketch=1;" edge="1" parent="1" source="nqxMB9Gxj_3vNnfW1NG4-1" target="nqxMB9Gxj_3vNnfW1NG4-5">
          <mxGeometry relative="1" as="geometry" />
        </mxCell>
        <mxCell id="nqxMB9Gxj_3vNnfW1NG4-59" style="edgeStyle=orthogonalEdgeStyle;rounded=0;orthogonalLoop=1;jettySize=auto;html=1;exitX=0.5;exitY=0;exitDx=0;exitDy=0;entryX=0.804;entryY=1.033;entryDx=0;entryDy=0;entryPerimeter=0;fontSize=11;sketch=1;" edge="1" parent="1" source="nqxMB9Gxj_3vNnfW1NG4-5" target="nqxMB9Gxj_3vNnfW1NG4-6">
          <mxGeometry relative="1" as="geometry" />
        </mxCell>
        <mxCell id="nqxMB9Gxj_3vNnfW1NG4-5" value="Interpreter" style="rounded=0;whiteSpace=wrap;html=1;fillColor=#dae8fc;strokeColor=#6c8ebf;sketch=1;" vertex="1" parent="1">
          <mxGeometry x="405" y="720" width="120" height="60" as="geometry" />
        </mxCell>
        <mxCell id="nqxMB9Gxj_3vNnfW1NG4-90" style="edgeStyle=orthogonalEdgeStyle;rounded=0;sketch=1;hachureGap=4;jiggle=2;orthogonalLoop=1;jettySize=auto;html=1;exitX=0.5;exitY=0;exitDx=0;exitDy=0;shadow=1;labelBackgroundColor=default;fontFamily=Architects Daughter;fontSource=https%3A%2F%2Ffonts.googleapis.com%2Fcss%3Ffamily%3DArchitects%2BDaughter;fontSize=16;fontColor=#333333;startArrow=classic;startFill=1;endArrow=classic;endFill=1;" edge="1" parent="1" source="nqxMB9Gxj_3vNnfW1NG4-6">
          <mxGeometry relative="1" as="geometry">
            <mxPoint x="383" y="510" as="targetPoint" />
          </mxGeometry>
        </mxCell>
        <mxCell id="nqxMB9Gxj_3vNnfW1NG4-6" value="&lt;font style=&quot;font-size: 11px;&quot;&gt;&lt;b&gt;Test Management and Control&lt;/b&gt;&lt;/font&gt;" style="rounded=0;whiteSpace=wrap;html=1;fillColor=#dae8fc;strokeColor=#6c8ebf;sketch=1;" vertex="1" parent="1">
          <mxGeometry x="245" y="620" width="275" height="60" as="geometry" />
        </mxCell>
        <mxCell id="nqxMB9Gxj_3vNnfW1NG4-13" value="" style="endArrow=classic;html=1;rounded=0;exitX=0.5;exitY=0;exitDx=0;exitDy=0;entryX=0.5;entryY=1;entryDx=0;entryDy=0;sketch=1;" edge="1" parent="1" source="nqxMB9Gxj_3vNnfW1NG4-3" target="nqxMB9Gxj_3vNnfW1NG4-5">
          <mxGeometry width="50" height="50" relative="1" as="geometry">
            <mxPoint x="555" y="820" as="sourcePoint" />
            <mxPoint x="505" y="870" as="targetPoint" />
          </mxGeometry>
        </mxCell>
        <mxCell id="nqxMB9Gxj_3vNnfW1NG4-14" value="" style="endArrow=classic;startArrow=classic;html=1;rounded=0;exitX=0.5;exitY=0;exitDx=0;exitDy=0;entryX=0.5;entryY=1;entryDx=0;entryDy=0;sketch=1;" edge="1" parent="1" source="nqxMB9Gxj_3vNnfW1NG4-4" target="nqxMB9Gxj_3vNnfW1NG4-3">
          <mxGeometry width="50" height="50" relative="1" as="geometry">
            <mxPoint x="515" y="870" as="sourcePoint" />
            <mxPoint x="565" y="820" as="targetPoint" />
          </mxGeometry>
        </mxCell>
        <mxCell id="nqxMB9Gxj_3vNnfW1NG4-96" style="edgeStyle=orthogonalEdgeStyle;rounded=0;sketch=1;hachureGap=4;jiggle=2;orthogonalLoop=1;jettySize=auto;html=1;exitX=0.5;exitY=0;exitDx=0;exitDy=0;entryX=0.5;entryY=1;entryDx=0;entryDy=0;shadow=1;labelBackgroundColor=default;fontFamily=Architects Daughter;fontSource=https%3A%2F%2Ffonts.googleapis.com%2Fcss%3Ffamily%3DArchitects%2BDaughter;fontSize=16;fontColor=#333333;startArrow=classic;startFill=1;endArrow=classic;endFill=1;" edge="1" parent="1" source="nqxMB9Gxj_3vNnfW1NG4-50" target="nqxMB9Gxj_3vNnfW1NG4-91">
          <mxGeometry relative="1" as="geometry" />
        </mxCell>
        <mxCell id="nqxMB9Gxj_3vNnfW1NG4-50" value="&lt;b&gt;Language Server&lt;/b&gt;" style="rounded=0;whiteSpace=wrap;html=1;shadow=0;glass=0;sketch=1;fontSize=11;" vertex="1" parent="1">
          <mxGeometry x="185" y="421" width="120" height="60" as="geometry" />
        </mxCell>
        <mxCell id="nqxMB9Gxj_3vNnfW1NG4-53" value="" style="shape=actor;whiteSpace=wrap;html=1;shadow=1;glass=0;sketch=1;fontSize=11;" vertex="1" parent="1">
          <mxGeometry x="467" y="280" width="65" height="80" as="geometry" />
        </mxCell>
        <mxCell id="nqxMB9Gxj_3vNnfW1NG4-58" style="edgeStyle=orthogonalEdgeStyle;rounded=0;orthogonalLoop=1;jettySize=auto;html=1;exitX=0.75;exitY=0;exitDx=0;exitDy=0;entryX=0.178;entryY=1.017;entryDx=0;entryDy=0;entryPerimeter=0;fontSize=11;sketch=1;" edge="1" parent="1" source="nqxMB9Gxj_3vNnfW1NG4-57" target="nqxMB9Gxj_3vNnfW1NG4-6">
          <mxGeometry relative="1" as="geometry" />
        </mxCell>
        <mxCell id="nqxMB9Gxj_3vNnfW1NG4-57" value="&lt;b&gt;k3 support package&lt;/b&gt;" style="rounded=0;whiteSpace=wrap;html=1;shadow=0;glass=0;sketch=1;fontSize=11;fillColor=#f5f5f5;fontColor=#333333;strokeColor=#666666;" vertex="1" parent="1">
          <mxGeometry x="65" y="720" width="305" height="60" as="geometry" />
        </mxCell>
        <mxCell id="nqxMB9Gxj_3vNnfW1NG4-71" value="" style="line;strokeWidth=2;html=1;rounded=0;shadow=0;glass=0;sketch=1;hachureGap=4;jiggle=2;fontFamily=Architects Daughter;fontSource=https%3A%2F%2Ffonts.googleapis.com%2Fcss%3Ffamily%3DArchitects%2BDaughter;fontSize=20;fontColor=#333333;dashed=1;" vertex="1" parent="1">
          <mxGeometry x="60" y="554" width="650" height="10" as="geometry" />
        </mxCell>
        <mxCell id="nqxMB9Gxj_3vNnfW1NG4-82" value="&lt;div align=&quot;right&quot;&gt;application&lt;/div&gt;" style="text;html=1;strokeColor=none;fillColor=none;align=right;verticalAlign=middle;whiteSpace=wrap;rounded=0;shadow=0;glass=0;labelBackgroundColor=none;sketch=1;hachureGap=4;jiggle=2;fillStyle=auto;fontFamily=Architects Daughter;fontSource=https%3A%2F%2Ffonts.googleapis.com%2Fcss%3Ffamily%3DArchitects%2BDaughter;fontSize=20;fontColor=#333333;" vertex="1" parent="1">
          <mxGeometry x="603" y="526" width="105" height="30" as="geometry" />
        </mxCell>
        <mxCell id="nqxMB9Gxj_3vNnfW1NG4-83" value="business logic" style="text;html=1;strokeColor=none;fillColor=none;align=right;verticalAlign=middle;whiteSpace=wrap;rounded=0;shadow=0;glass=0;labelBackgroundColor=none;sketch=1;hachureGap=4;jiggle=2;fillStyle=auto;fontFamily=Architects Daughter;fontSource=https%3A%2F%2Ffonts.googleapis.com%2Fcss%3Ffamily%3DArchitects%2BDaughter;fontSize=20;fontColor=#333333;" vertex="1" parent="1">
          <mxGeometry x="580" y="556" width="130" height="30" as="geometry" />
        </mxCell>
        <mxCell id="nqxMB9Gxj_3vNnfW1NG4-104" style="edgeStyle=orthogonalEdgeStyle;rounded=0;sketch=1;hachureGap=4;jiggle=2;orthogonalLoop=1;jettySize=auto;html=1;exitX=0.5;exitY=0;exitDx=0;exitDy=0;entryX=0.5;entryY=0;entryDx=0;entryDy=0;shadow=1;labelBackgroundColor=default;fontFamily=Architects Daughter;fontSource=https%3A%2F%2Ffonts.googleapis.com%2Fcss%3Ffamily%3DArchitects%2BDaughter;fontSize=16;fontColor=#333333;startArrow=classic;startFill=1;endArrow=classic;endFill=1;" edge="1" parent="1" source="nqxMB9Gxj_3vNnfW1NG4-91" target="nqxMB9Gxj_3vNnfW1NG4-53">
          <mxGeometry relative="1" as="geometry" />
        </mxCell>
        <mxCell id="nqxMB9Gxj_3vNnfW1NG4-91" value="&lt;div&gt;&lt;b&gt;vscode-ttcn3,&lt;/b&gt;&lt;/div&gt;&lt;div&gt;&lt;b&gt;vim, ...&lt;br&gt;&lt;/b&gt;&lt;/div&gt;" style="rounded=0;whiteSpace=wrap;html=1;shadow=0;glass=0;sketch=1;fontSize=11;" vertex="1" parent="1">
          <mxGeometry x="185" y="290" width="120" height="60" as="geometry" />
        </mxCell>
        <mxCell id="nqxMB9Gxj_3vNnfW1NG4-94" value="Language Server" style="rounded=0;whiteSpace=wrap;html=1;shadow=0;glass=0;sketch=1;fontSize=11;" vertex="1" parent="1">
          <mxGeometry x="447" y="427" width="120" height="60" as="geometry" />
        </mxCell>
        <mxCell id="nqxMB9Gxj_3vNnfW1NG4-93" value="Language Server" style="rounded=0;whiteSpace=wrap;html=1;shadow=0;glass=0;sketch=1;fontSize=11;" vertex="1" parent="1">
          <mxGeometry x="443" y="424" width="120" height="60" as="geometry" />
        </mxCell>
        <mxCell id="nqxMB9Gxj_3vNnfW1NG4-103" style="edgeStyle=orthogonalEdgeStyle;rounded=0;sketch=1;hachureGap=4;jiggle=2;orthogonalLoop=1;jettySize=auto;html=1;exitX=0.5;exitY=0;exitDx=0;exitDy=0;entryX=0.5;entryY=1;entryDx=0;entryDy=0;shadow=1;labelBackgroundColor=default;fontFamily=Architects Daughter;fontSource=https%3A%2F%2Ffonts.googleapis.com%2Fcss%3Ffamily%3DArchitects%2BDaughter;fontSize=16;fontColor=#333333;startArrow=classic;startFill=1;endArrow=classic;endFill=1;" edge="1" parent="1" source="nqxMB9Gxj_3vNnfW1NG4-92" target="nqxMB9Gxj_3vNnfW1NG4-53">
          <mxGeometry relative="1" as="geometry" />
        </mxCell>
        <mxCell id="nqxMB9Gxj_3vNnfW1NG4-92" value="&lt;b&gt;CLI Tools&lt;/b&gt;" style="rounded=0;whiteSpace=wrap;html=1;shadow=0;glass=0;sketch=1;fontSize=11;" vertex="1" parent="1">
          <mxGeometry x="440" y="421" width="120" height="60" as="geometry" />
        </mxCell>
        <mxCell id="nqxMB9Gxj_3vNnfW1NG4-89" style="edgeStyle=orthogonalEdgeStyle;rounded=0;sketch=1;hachureGap=4;jiggle=2;orthogonalLoop=1;jettySize=auto;html=1;exitX=0.5;exitY=1;exitDx=0;exitDy=0;shadow=1;labelBackgroundColor=default;fontFamily=Architects Daughter;fontSource=https%3A%2F%2Ffonts.googleapis.com%2Fcss%3Ffamily%3DArchitects%2BDaughter;fontSize=16;fontColor=#333333;startArrow=none;startFill=0;endArrow=none;endFill=0;entryX=0.5;entryY=1;entryDx=0;entryDy=0;" edge="1" parent="1" source="nqxMB9Gxj_3vNnfW1NG4-50" target="nqxMB9Gxj_3vNnfW1NG4-92">
          <mxGeometry relative="1" as="geometry">
            <mxPoint x="950" y="500" as="targetPoint" />
            <Array as="points" />
          </mxGeometry>
        </mxCell>
      </root>
    </mxGraphModel>
  </diagram>
</mxfile>
